<!-- Generated by IcoMoon.io -->
<svg version="1.1" xmlns="http://www.w3.org/2000/svg" width="768" height="768" viewBox="0 0 768 768">
<title></title>
<g id="icomoon-ignore">
</g>
<path fill="#000" d="M481.5 187.5q10.5-10.5 10.5-27t-10.5-28.5l-51-51 34.5-34.5 51 51q25.5 28.5 25.5 63 0 33-25.5 61.5l-115.5 115.5-33-34.5zM546 379.5q28.5-25.5 61.5-25.5 34.5 0 63 25.5l51 52.5-33 33-52.5-51q-12-12-28.5-12-15 0-27 12l-51 51-34.5-34.5zM322.5 220.5q10.5-10.5 10.5-28.5t-10.5-28.5l-19.5-18 34.5-34.5 18 18q25.5 28.5 25.5 63 0 33-25.5 61.5l-18 19.5-34.5-34.5zM465 400.5l-34.5-33 180-180q28.5-25.5 61.5-25.5 34.5 0 63 25.5l18 19.5-33 34.5-19.5-19.5q-12-12-28.5-12t-28.5 12zM64.5 703.5l159-447 288 288z"></path>
</svg>
