<svg width="64" height="64" viewBox="0 0 64 64" fill="none" xmlns="http://www.w3.org/2000/svg">
<path d="M38.7463 3.867L35.8663 6.747L40.133 11.0137C40.7197 11.6803 41.013 12.4537 41.013 13.3337C41.013 14.2137 40.7197 15.0403 40.133 15.627L30.6663 25.2537L33.333 28.1337L43.013 18.507C44.4263 16.9337 45.1197 15.2003 45.1197 13.3337C45.1197 11.467 44.4263 9.707 43.013 8.13367L38.7463 3.867ZM28.133 9.25367L25.253 12.1337L26.8797 13.627C27.4663 14.2137 27.7597 15.0137 27.7597 16.0003C27.7597 16.987 27.4663 17.787 26.8797 18.3737L25.253 19.867L28.133 22.747L29.6263 21.1203C31.0397 19.547 31.7597 17.8403 31.7597 16.0003C31.7597 14.0803 31.0397 12.347 29.6263 10.747L28.133 9.25367ZM55.9997 13.4937C54.1597 13.4937 52.453 14.2137 50.8797 15.627L35.8663 30.667L38.7463 33.3337L53.6263 18.507C54.293 17.8403 55.093 17.4937 55.9997 17.4937C56.9063 17.4937 57.7063 17.8403 58.373 18.507L59.9997 20.1337L62.7463 17.2537L61.253 15.627C59.6797 14.2137 57.9197 13.4937 55.9997 13.4937ZM18.6663 21.3337L5.33301 58.667L42.6663 45.3337L18.6663 21.3337ZM50.6663 29.4937C48.7997 29.4937 47.093 30.2137 45.493 31.627L41.253 35.867L44.133 38.747L48.373 34.507C49.0397 33.8403 49.7863 33.4937 50.6663 33.4937C51.5463 33.4937 52.3463 33.8403 53.013 34.507L57.333 38.747L60.133 36.0003L55.8663 31.627C54.293 30.2137 52.533 29.4937 50.6663 29.4937Z" fill="#535353"/>
</svg>
