<svg width="64" height="64" viewBox="0 0 64 64" fill="none" xmlns="http://www.w3.org/2000/svg">
<path d="M58.6663 53.3333H47.9997V61.3333L34.6663 49.3333L47.9997 37.3333V45.3333H58.6663V53.3333ZM53.333 10.6667H10.6663C9.25185 10.6667 7.8953 11.2286 6.8951 12.2288C5.89491 13.2289 5.33301 14.5855 5.33301 16V48C5.33301 49.4145 5.89491 50.771 6.8951 51.7712C7.8953 52.7714 9.25185 53.3333 10.6663 53.3333H29.333V48H10.6663V21.3333L31.9997 34.6667L53.333 21.3333V40H58.6663V16C58.6663 14.5855 58.1044 13.2289 57.1042 12.2288C56.104 11.2286 54.7475 10.6667 53.333 10.6667ZM31.9997 29.3333L10.6663 16H53.333L31.9997 29.3333Z" fill="#535353"/>
</svg>
