<svg width="65" height="48" viewBox="0 0 65 48" fill="none" xmlns="http://www.w3.org/2000/svg">
<path fill-rule="evenodd" clip-rule="evenodd" d="M4 48C4 48 0 48 0 44C0 40 4 28 24 28C44 28 48 40 48 44C48 48 44 48 44 48H4ZM24 24C27.1826 24 30.2348 22.7357 32.4853 20.4853C34.7357 18.2348 36 15.1826 36 12C36 8.8174 34.7357 5.76516 32.4853 3.51472C30.2348 1.26428 27.1826 0 24 0C20.8174 0 17.7652 1.26428 15.5147 3.51472C13.2643 5.76516 12 8.8174 12 12C12 15.1826 13.2643 18.2348 15.5147 20.4853C17.7652 22.7357 20.8174 24 24 24ZM63.416 12.584C63.6022 12.7698 63.75 12.9905 63.8508 13.2335C63.9517 13.4764 64.0036 13.7369 64.0036 14C64.0036 14.2631 63.9517 14.5236 63.8508 14.7665C63.75 15.0095 63.6022 15.2302 63.416 15.416L51.416 27.416C51.2302 27.6023 51.0095 27.75 50.7665 27.8508C50.5235 27.9517 50.2631 28.0036 50 28.0036C49.7369 28.0036 49.4764 27.9517 49.2335 27.8508C48.9905 27.75 48.7698 27.6023 48.584 27.416L42.584 21.416C42.2084 21.0405 41.9975 20.5311 41.9975 20C41.9975 19.4689 42.2084 18.9595 42.584 18.584C42.9595 18.2085 43.4689 17.9975 44 17.9975C44.5311 17.9975 45.0404 18.2085 45.416 18.584L50 23.172L60.584 12.584C60.7698 12.3977 60.9905 12.25 61.2335 12.1491C61.4764 12.0483 61.7369 11.9964 62 11.9964C62.2631 11.9964 62.5235 12.0483 62.7665 12.1491C63.0095 12.25 63.2302 12.3977 63.416 12.584Z" fill="#535353"/>
</svg>
