<svg width="52" height="46" viewBox="0 0 52 46" fill="none" xmlns="http://www.w3.org/2000/svg">
<path d="M51.5 38.5H15C14.725 38.5 14.5 38.725 14.5 39V42.5C14.5 42.775 14.725 43 15 43H51.5C51.775 43 52 42.775 52 42.5V39C52 38.725 51.775 38.5 51.5 38.5ZM51.5 3H15C14.725 3 14.5 3.225 14.5 3.5V7C14.5 7.275 14.725 7.5 15 7.5H51.5C51.775 7.5 52 7.275 52 7V3.5C52 3.225 51.775 3 51.5 3ZM51.5 20.75H15C14.725 20.75 14.5 20.975 14.5 21.25V24.75C14.5 25.025 14.725 25.25 15 25.25H51.5C51.775 25.25 52 25.025 52 24.75V21.25C52 20.975 51.775 20.75 51.5 20.75ZM7.5 35.5H0.25C0.1125 35.5 0 35.6125 0 35.75V37.875C0 38.0125 0.1125 38.125 0.25 38.125H4.775V39.4062H2.54375C2.40625 39.4062 2.29375 39.5187 2.29375 39.6562V41.7812C2.29375 41.9188 2.40625 42.0312 2.54375 42.0312H4.775V43.375H0.25C0.1125 43.375 0 43.4875 0 43.625V45.75C0 45.8875 0.1125 46 0.25 46H7.5C7.6375 46 7.75 45.8875 7.75 45.75V35.75C7.75 35.6125 7.6375 35.5 7.5 35.5ZM0.25 2.75H2.625V10.25C2.625 10.3875 2.7375 10.5 2.875 10.5H5.375C5.5125 10.5 5.625 10.3875 5.625 10.25V0.5C5.625 0.225 5.4 0 5.125 0H0.25C0.1125 0 0 0.1125 0 0.25V2.5C0 2.6375 0.1125 2.75 0.25 2.75ZM7.5 17.75H0.25C0.1125 17.75 0 17.8625 0 18V20.25C0 20.3875 0.1125 20.5 0.25 20.5H4.525L0.13125 25.3563C0.0483792 25.4493 0.00178849 25.5691 0 25.6937V28C0 28.1375 0.1125 28.25 0.25 28.25H7.5C7.6375 28.25 7.75 28.1375 7.75 28V25.75C7.75 25.6125 7.6375 25.5 7.5 25.5H3.225L7.61875 20.6437C7.70162 20.5507 7.74821 20.4309 7.75 20.3062V18C7.75 17.8625 7.6375 17.75 7.5 17.75Z" fill="#535353"/>
</svg>
