<svg width="64" height="64" viewBox="0 0 64 64" fill="none" xmlns="http://www.w3.org/2000/svg">
<path d="M58 28C58.5304 28 59.0391 27.7893 59.4142 27.4142C59.7893 27.0391 60 26.5304 60 26V16C60 14.9391 59.5786 13.9217 58.8284 13.1716C58.0783 12.4214 57.0609 12 56 12H8C6.93913 12 5.92172 12.4214 5.17157 13.1716C4.42143 13.9217 4 14.9391 4 16V26C4 26.5304 4.21071 27.0391 4.58579 27.4142C4.96086 27.7893 5.46957 28 6 28C7.06087 28 8.07828 28.4214 8.82843 29.1716C9.57857 29.9217 10 30.9391 10 32C10 33.0609 9.57857 34.0783 8.82843 34.8284C8.07828 35.5786 7.06087 36 6 36C5.46957 36 4.96086 36.2107 4.58579 36.5858C4.21071 36.9609 4 37.4696 4 38V48C4 49.0609 4.42143 50.0783 5.17157 50.8284C5.92172 51.5786 6.93913 52 8 52H56C57.0609 52 58.0783 51.5786 58.8284 50.8284C59.5786 50.0783 60 49.0609 60 48V38C60 37.4696 59.7893 36.9609 59.4142 36.5858C59.0391 36.2107 58.5304 36 58 36C56.9391 36 55.9217 35.5786 55.1716 34.8284C54.4214 34.0783 54 33.0609 54 32C54 30.9391 54.4214 29.9217 55.1716 29.1716C55.9217 28.4214 56.9391 28 58 28ZM56 39.74V48H42V42H38V48H8V39.74C9.71199 39.2925 11.2273 38.2901 12.3088 36.8896C13.3904 35.4891 13.977 33.7695 13.977 32C13.977 30.2305 13.3904 28.5109 12.3088 27.1104C11.2273 25.7099 9.71199 24.7075 8 24.26V16H38V22H42V16H56V24.26C54.288 24.7075 52.7727 25.7099 51.6912 27.1104C50.6096 28.5109 50.023 30.2305 50.023 32C50.023 33.7695 50.6096 35.4891 51.6912 36.8896C52.7727 38.2901 54.288 39.2925 56 39.74Z" fill="#535353"/>
<path d="M38 26H42V38H38V26Z" fill="#535353"/>
</svg>
