<svg width="54" height="54" viewBox="0 0 54 54" fill="none" xmlns="http://www.w3.org/2000/svg">
<path d="M26.6667 0C11.9627 0 0 11.9627 0 26.6667C0 41.3707 11.9627 53.3333 26.6667 53.3333C41.3707 53.3333 53.3333 41.3707 53.3333 26.6667C53.3333 11.9627 41.3707 0 26.6667 0ZM26.6667 48C14.904 48 5.33333 38.4293 5.33333 26.6667C5.33333 14.904 14.904 5.33333 26.6667 5.33333C38.4293 5.33333 48 14.904 48 26.6667C48 38.4293 38.4293 48 26.6667 48Z" fill="#535353"/>
<path d="M29.3333 13.334H24V29.334H40V24.0007H29.3333V13.334Z" fill="#535353"/>
</svg>
